<svg width="1200" height="630" viewBox="0 0 1200 630" xmlns="http://www.w3.org/2000/svg">
  <rect width="1200" height="630" fill="#ffffff"/>
  <g transform="translate(220, 195)">
  <!-- Left boxplot — pink IQR box -->
  <line x1="20" y1="14" x2="20"  y2="24" stroke="#2b2b2b" stroke-width="2" stroke-linecap="round"/>
  <line x1="10" y1="14" x2="30"  y2="14" stroke="#2b2b2b" stroke-width="2" stroke-linecap="round"/>
  <line x1="7"  y1="42" x2="33"  y2="42" stroke="#2b2b2b" stroke-width="2" stroke-linecap="round"/>
  <line x1="20" y1="65" x2="20"  y2="78" stroke="#2b2b2b" stroke-width="2" stroke-linecap="round"/>
  <line x1="10" y1="78" x2="30"  y2="78" stroke="#2b2b2b" stroke-width="2" stroke-linecap="round"/>
  <rect x="7"   y="25" width="26" height="39" stroke="#CC79A7" stroke-width="2" fill="none"/>
  <!-- Center boxplot — blue IQR box -->
  <line x1="56" y1="6"  x2="56"  y2="19" stroke="#2b2b2b" stroke-width="2" stroke-linecap="round"/>
  <line x1="43" y1="6"  x2="69"  y2="6"  stroke="#2b2b2b" stroke-width="2" stroke-linecap="round"/>
  <line x1="41" y1="43" x2="71"  y2="43" stroke="#2b2b2b" stroke-width="2" stroke-linecap="round"/>
  <line x1="56" y1="74" x2="56"  y2="88" stroke="#2b2b2b" stroke-width="2" stroke-linecap="round"/>
  <line x1="43" y1="88" x2="69"  y2="88" stroke="#2b2b2b" stroke-width="2" stroke-linecap="round"/>
  <rect x="41"  y="20" width="30" height="53" stroke="#56B4E9" stroke-width="2" fill="none"/>
  <!-- Right boxplot — green IQR box -->
  <line x1="92" y1="17" x2="92"  y2="27" stroke="#2b2b2b" stroke-width="2" stroke-linecap="round"/>
  <line x1="82" y1="17" x2="102" y2="17" stroke="#2b2b2b" stroke-width="2" stroke-linecap="round"/>
  <line x1="79" y1="46" x2="105" y2="46" stroke="#2b2b2b" stroke-width="2" stroke-linecap="round"/>
  <line x1="92" y1="63" x2="92"  y2="76" stroke="#2b2b2b" stroke-width="2" stroke-linecap="round"/>
  <line x1="82" y1="76" x2="102" y2="76" stroke="#2b2b2b" stroke-width="2" stroke-linecap="round"/>
  <rect x="79"  y="28" width="26" height="34" stroke="#009E73" stroke-width="2" fill="none"/>
  </g>
  <text x="370" y="244" font-family="Jost W600" font-size="46" letter-spacing="3" fill="#2b2b2b">CHALKBOARD RESEARCH</text>
  <text x="994" y="218" font-family="Jost" font-size="15" letter-spacing="0.5" fill="#6b6b6b">SM</text>
  <text x="375" y="279" font-family="Jost" font-weight="300" font-size="19" letter-spacing="3" fill="#4a4a4a">DRAWING INSIGHTS FROM YOUR DATA</text>
  <line x1="220" y1="340" x2="980" y2="340" stroke="#e0e0e0" stroke-width="1.5"/>
  <text x="220" y="395" font-family="Lora" font-weight="400" font-size="25" letter-spacing="0" fill="#4a4a4a">
    <tspan x="220" dy="0">I collaborate with local businesses, nonprofits, public agencies,</tspan>
    <tspan x="220" dy="34">and newsrooms to turn their data into understanding that</tspan>
    <tspan x="220" dy="34">supports real decisions.</tspan>
  </text>
</svg>