<svg width="1200" height="630" viewBox="0 0 1200 630" xmlns="http://www.w3.org/2000/svg">
  <rect width="1200" height="630" fill="#ffffff"/>
  <g transform="translate(220, 195)">
  <!-- Left boxplot — pink IQR box -->
  <line x1="19.6" y1="14"    x2="19.6"  y2="24.22" stroke="#2b2b2b" stroke-width="1.96" stroke-linecap="round"/>
  <line x1="9.8"  y1="14"    x2="29.4"  y2="14"    stroke="#2b2b2b" stroke-width="1.96" stroke-linecap="round"/>
  <line x1="7"    y1="42"    x2="32.2"  y2="42"    stroke="#2b2b2b" stroke-width="1.96" stroke-linecap="round"/>
  <line x1="19.6" y1="65.38" x2="19.6"  y2="78.4"  stroke="#2b2b2b" stroke-width="1.96" stroke-linecap="round"/>
  <line x1="9.8"  y1="78.4"  x2="29.4"  y2="78.4"  stroke="#2b2b2b" stroke-width="1.96" stroke-linecap="round"/>
  <rect x="7"     y="25.2"   width="25.2" height="39.2" stroke="#CC79A7" stroke-width="1.96" fill="none"/>
  <!-- Center boxplot — blue IQR box -->
  <line x1="56"   y1="5.6"   x2="56"    y2="18.55" stroke="#2b2b2b" stroke-width="2.1"  stroke-linecap="round"/>
  <line x1="43.4" y1="5.6"   x2="68.6"  y2="5.6"   stroke="#2b2b2b" stroke-width="2.1"  stroke-linecap="round"/>
  <line x1="40.6" y1="43.4"  x2="71.4"  y2="43.4"  stroke="#2b2b2b" stroke-width="2.1"  stroke-linecap="round"/>
  <line x1="56"   y1="73.85" x2="56"    y2="88.2"  stroke="#2b2b2b" stroke-width="2.1"  stroke-linecap="round"/>
  <line x1="43.4" y1="88.2"  x2="68.6"  y2="88.2"  stroke="#2b2b2b" stroke-width="2.1"  stroke-linecap="round"/>
  <rect x="40.6"  y="19.6"   width="30.8" height="53.2" stroke="#56B4E9" stroke-width="2.1"  fill="none"/>
  <!-- Right boxplot — green IQR box -->
  <line x1="92.4" y1="16.8"  x2="92.4"  y2="27.02" stroke="#2b2b2b" stroke-width="1.96" stroke-linecap="round"/>
  <line x1="82.6" y1="16.8"  x2="102.2" y2="16.8"  stroke="#2b2b2b" stroke-width="1.96" stroke-linecap="round"/>
  <line x1="79.8" y1="46.2"  x2="105"   y2="46.2"  stroke="#2b2b2b" stroke-width="1.96" stroke-linecap="round"/>
  <line x1="92.4" y1="62.58" x2="92.4"  y2="75.6"  stroke="#2b2b2b" stroke-width="1.96" stroke-linecap="round"/>
  <line x1="82.6" y1="75.6"  x2="102.2" y2="75.6"  stroke="#2b2b2b" stroke-width="1.96" stroke-linecap="round"/>
  <rect x="79.8"  y="28"     width="25.2" height="33.6" stroke="#009E73" stroke-width="1.96" fill="none"/>
  </g>
  <text x="370" y="244" font-family="Josefin Sans" font-weight="600" font-size="46" letter-spacing="3" fill="#2b2b2b">CHALKBOARD RESEARCH</text>
  <text x="1026" y="218" font-family="Josefin Sans" font-size="15" letter-spacing="0.5" fill="#6b6b6b">SM</text>
  <text x="375" y="279" font-family="Josefin Sans" font-weight="300" font-size="19" letter-spacing="3" fill="#4a4a4a">DRAWING INSIGHTS FROM YOUR DATA</text>
  <line x1="220" y1="340" x2="980" y2="340" stroke="#e0e0e0" stroke-width="1.5"/>
  <text x="220" y="395" font-family="Lora" font-weight="400" font-size="25" letter-spacing="0" fill="#4a4a4a">
    <tspan x="220" dy="0">I collaborate with local businesses, nonprofits, public agencies,</tspan>
    <tspan x="220" dy="34">and newsrooms to turn their data into understanding that</tspan>
    <tspan x="220" dy="34">supports real decisions.</tspan>
  </text>
</svg>