<svg width="640" height="108" viewBox="0 0 640 108" xmlns="http://www.w3.org/2000/svg">
  <rect width="640" height="108" fill="#ffffff"/>
  <g transform="translate(0, 9) scale(1.07)">
  <!-- Left boxplot — pink IQR box -->
  <line x1="19.6" y1="14"    x2="19.6"  y2="24.22" stroke="#2b2b2b" stroke-width="1.96" stroke-linecap="round"/>
  <line x1="9.8"  y1="14"    x2="29.4"  y2="14"    stroke="#2b2b2b" stroke-width="1.96" stroke-linecap="round"/>
  <line x1="7"    y1="42"    x2="32.2"  y2="42"    stroke="#2b2b2b" stroke-width="1.96" stroke-linecap="round"/>
  <line x1="19.6" y1="65.38" x2="19.6"  y2="78.4"  stroke="#2b2b2b" stroke-width="1.96" stroke-linecap="round"/>
  <line x1="9.8"  y1="78.4"  x2="29.4"  y2="78.4"  stroke="#2b2b2b" stroke-width="1.96" stroke-linecap="round"/>
  <rect x="7"     y="25.2"   width="25.2" height="39.2" stroke="#CC79A7" stroke-width="1.96" fill="none"/>
  <!-- Center boxplot — blue IQR box -->
  <line x1="56"   y1="5.6"   x2="56"    y2="18.55" stroke="#2b2b2b" stroke-width="2.1"  stroke-linecap="round"/>
  <line x1="43.4" y1="5.6"   x2="68.6"  y2="5.6"   stroke="#2b2b2b" stroke-width="2.1"  stroke-linecap="round"/>
  <line x1="40.6" y1="43.4"  x2="71.4"  y2="43.4"  stroke="#2b2b2b" stroke-width="2.1"  stroke-linecap="round"/>
  <line x1="56"   y1="73.85" x2="56"    y2="88.2"  stroke="#2b2b2b" stroke-width="2.1"  stroke-linecap="round"/>
  <line x1="43.4" y1="88.2"  x2="68.6"  y2="88.2"  stroke="#2b2b2b" stroke-width="2.1"  stroke-linecap="round"/>
  <rect x="40.6"  y="19.6"   width="30.8" height="53.2" stroke="#56B4E9" stroke-width="2.1"  fill="none"/>
  <!-- Right boxplot — green IQR box -->
  <line x1="92.4" y1="16.8"  x2="92.4"  y2="27.02" stroke="#2b2b2b" stroke-width="1.96" stroke-linecap="round"/>
  <line x1="82.6" y1="16.8"  x2="102.2" y2="16.8"  stroke="#2b2b2b" stroke-width="1.96" stroke-linecap="round"/>
  <line x1="79.8" y1="46.2"  x2="105"   y2="46.2"  stroke="#2b2b2b" stroke-width="1.96" stroke-linecap="round"/>
  <line x1="92.4" y1="62.58" x2="92.4"  y2="75.6"  stroke="#2b2b2b" stroke-width="1.96" stroke-linecap="round"/>
  <line x1="82.6" y1="75.6"  x2="102.2" y2="75.6"  stroke="#2b2b2b" stroke-width="1.96" stroke-linecap="round"/>
  <rect x="79.8"  y="28"     width="25.2" height="33.6" stroke="#009E73" stroke-width="1.96" fill="none"/>
  </g>
  <text x="132" y="50" font-family="Josefin Sans SemiBold" font-size="30" letter-spacing="2" fill="#2b2b2b">CHALKBOARD RESEARCH</text>
  <text x="135" y="70" font-family="Josefin Sans Light" font-size="12" letter-spacing="2" fill="#6b6b6b">DRAWING INSIGHTS FROM YOUR DATA</text>
</svg>