<svg width="700" height="96" viewBox="0 0 700 96" xmlns="http://www.w3.org/2000/svg">
  <rect width="700" height="96" fill="white"/>
  <g transform="translate(6, 2)">
    <!-- Left boxplot — pink (#CC79A7) -->
    <line x1="21" y1="12" x2="21" y2="24" stroke="#2b2b2b" stroke-width="2" stroke-linecap="round"/>
    <line x1="11" y1="12" x2="31" y2="12" stroke="#2b2b2b" stroke-width="2" stroke-linecap="round"/>
    <line x1="8"  y1="42" x2="34" y2="42" stroke="#2b2b2b" stroke-width="2" stroke-linecap="round"/>
    <line x1="21" y1="68" x2="21" y2="80" stroke="#2b2b2b" stroke-width="2" stroke-linecap="round"/>
    <line x1="11" y1="80" x2="31" y2="80" stroke="#2b2b2b" stroke-width="2" stroke-linecap="round"/>
    <rect x="8"  y="25"  width="26" height="42" stroke="#CC79A7" stroke-width="2" fill="none"/>
    <!-- Center boxplot — blue (#56B4E9) -->
    <line x1="60" y1="4"  x2="60" y2="18" stroke="#2b2b2b" stroke-width="2" stroke-linecap="round"/>
    <line x1="47" y1="4"  x2="73" y2="4"  stroke="#2b2b2b" stroke-width="2" stroke-linecap="round"/>
    <line x1="44" y1="44" x2="76" y2="44" stroke="#2b2b2b" stroke-width="2" stroke-linecap="round"/>
    <line x1="60" y1="74" x2="60" y2="88" stroke="#2b2b2b" stroke-width="2" stroke-linecap="round"/>
    <line x1="47" y1="88" x2="73" y2="88" stroke="#2b2b2b" stroke-width="2" stroke-linecap="round"/>
    <rect x="44" y="19"  width="32" height="54" stroke="#56B4E9" stroke-width="2" fill="none"/>
    <!-- Right boxplot — green (#009E73) -->
    <line x1="99" y1="14" x2="99" y2="26" stroke="#2b2b2b" stroke-width="2" stroke-linecap="round"/>
    <line x1="89" y1="14" x2="109" y2="14" stroke="#2b2b2b" stroke-width="2" stroke-linecap="round"/>
    <line x1="86" y1="46" x2="112" y2="46" stroke="#2b2b2b" stroke-width="2" stroke-linecap="round"/>
    <line x1="99" y1="62" x2="99" y2="76" stroke="#2b2b2b" stroke-width="2" stroke-linecap="round"/>
    <line x1="89" y1="76" x2="109" y2="76" stroke="#2b2b2b" stroke-width="2" stroke-linecap="round"/>
    <rect x="86" y="28"  width="26" height="33" stroke="#009E73" stroke-width="2" fill="none"/>
  </g>
  <!-- Vertical divider -->
  <line x1="132" y1="16" x2="132" y2="80" stroke="#d0d0d0" stroke-width="1"/>
  <!-- Wordmark in Jost wght 600 (build-time static instance; see instance_fonts.py) -->
  <text x="146" y="56"
    font-family="Jost W600"
    font-size="26"
    letter-spacing="3"
    fill="#2b2b2b">CHALKBOARD RESEARCH</text>
</svg>
